# xmcd
#
# Track frame offsets: 
#        150
#        22759
#        50406
#        68679
#        93461
#        111535
#        139006
#        164570
#        207158
#        235137
#        257688
#
# Disc length: 3822 seconds
#
# Revision: 0
# Processed by: cddbd v1.5.2PL0 Copyright (c) Steve Scherf et al.
# Submitted via: ExactAudioCopy v0.99pb4
#
DISCID=940eec0b
DTITLE=PiaNOLA Live - Henry Butler
DYEAR=2008
DGENRE=Blues
TTITLE0=Basin St. Blues
TTITLE1=Orleans Inspiration
TTITLE2=Mother-In-Law
TTITLE3=Dock Of The Bay
TTITLE4=Let 'Em Roll
TTITLE5=Somethin' You Got
TTITLE6=You Are My Sunshine
TTITLE7=Tipitina
TTITLE8=Will It Go Round In Circles
TTITLE9=Old Man River
TTITLE10=North American Idiosyncrasies
EXTD=
EXTT0=
EXTT1=
EXTT2=
EXTT3=
EXTT4=
EXTT5=
EXTT6=
EXTT7=
EXTT8=
EXTT9=
EXTT10=
PLAYORDER=
